<svg width="103" height="88" viewBox="0 0 103 88" fill="none" xmlns="http://www.w3.org/2000/svg">
<rect width="103" height="88" rx="44" fill="white"/>
<path d="M20.556 63.296C17.532 62.792 15.318 61.478 13.914 59.354C12.546 57.23 11.862 54.71 11.862 51.794C11.862 49.67 12.204 47.456 12.888 45.152C13.572 42.812 14.544 40.526 15.804 38.294C17.1 36.062 18.648 33.992 20.448 32.084C22.248 30.14 24.282 28.484 26.55 27.116C28.818 25.748 31.284 24.794 33.948 24.254C35.568 23.93 37.116 23.768 38.592 23.768C41.472 23.768 43.776 24.344 45.504 25.496C47.232 26.612 48.096 28.052 48.096 29.816C48.096 30.176 48.06 30.536 47.988 30.896C47.952 31.22 47.844 31.58 47.664 31.976C47.268 33.02 46.602 33.956 45.666 34.784C44.766 35.576 43.722 36.188 42.534 36.62C41.382 37.052 40.194 37.232 38.97 37.16C38.394 37.088 37.89 36.89 37.458 36.566C37.062 36.206 36.864 35.774 36.864 35.27C36.864 34.766 37.08 34.226 37.512 33.65C37.908 33.794 38.358 33.866 38.862 33.866C39.762 33.866 40.644 33.65 41.508 33.218C42.372 32.786 43.092 32.192 43.668 31.436C44.244 30.68 44.532 29.834 44.532 28.898C44.532 27.638 44.1 26.81 43.236 26.414C42.372 25.982 41.4 25.766 40.32 25.766C39.6 25.766 38.88 25.838 38.16 25.982C37.476 26.09 36.918 26.198 36.486 26.306C34.434 26.846 32.328 27.836 30.168 29.276C28.044 30.68 26.1 32.408 24.336 34.46C22.572 36.476 21.204 38.69 20.232 41.102C19.512 42.866 18.954 44.648 18.558 46.448C18.162 48.248 17.964 49.958 17.964 51.578C17.964 53.666 18.306 55.502 18.99 57.086C19.71 58.67 20.844 59.768 22.392 60.38C23.796 60.92 25.236 61.19 26.712 61.19C29.088 61.19 31.482 60.614 33.894 59.462C36.342 58.31 38.592 56.852 40.644 55.088C41.904 53.972 43.038 52.82 44.046 51.632C45.054 50.444 45.828 49.184 46.368 47.852C47.052 48.284 47.394 48.914 47.394 49.742C47.394 50.39 47.196 51.092 46.8 51.848C46.44 52.604 46.008 53.306 45.504 53.954C45.036 54.602 44.622 55.106 44.262 55.466C41.742 58.094 38.718 60.11 35.19 61.514C31.698 62.918 28.152 63.62 24.552 63.62C23.184 63.62 21.852 63.512 20.556 63.296ZM65.2053 63.188C64.0173 63.188 63.2253 62.774 62.8293 61.946C62.4333 61.082 62.2353 60.128 62.2353 59.084C62.2353 58.364 62.2893 57.662 62.3973 56.978C62.5053 56.258 62.6133 55.664 62.7213 55.196C63.0093 53.828 63.4773 52.208 64.1253 50.336C64.7733 48.428 65.5113 46.43 66.3393 44.342C67.2033 42.218 68.1033 40.13 69.0393 38.078C69.9753 35.99 70.8753 34.046 71.7393 32.246C72.6393 30.41 73.4313 28.844 74.1153 27.548C73.2873 27.584 72.3333 27.584 71.2533 27.548C70.1733 27.476 69.0573 27.44 67.9053 27.44C65.9253 27.44 63.9633 27.602 62.0193 27.926C60.1113 28.214 58.5453 28.916 57.3213 30.032C56.7453 30.572 56.3313 31.148 56.0793 31.76C55.8273 32.372 55.7013 32.984 55.7013 33.596C55.7013 34.28 55.8093 34.946 56.0253 35.594C56.0613 35.666 56.0793 35.756 56.0793 35.864C56.0793 36.224 55.8993 36.404 55.5393 36.404C55.3233 36.404 55.1613 36.314 55.0533 36.134C54.6933 35.558 54.4233 34.982 54.2433 34.406C54.0993 33.794 54.0273 33.2 54.0273 32.624C54.0273 31.616 54.2073 30.662 54.5673 29.762C54.9273 28.862 55.3593 28.124 55.8633 27.548C57.1233 26.072 58.8333 25.1 60.9933 24.632C63.1533 24.128 65.4033 23.876 67.7433 23.876C69.5433 23.876 71.2893 23.948 72.9813 24.092C74.7093 24.236 76.2393 24.344 77.5713 24.416C78.8313 24.488 80.3973 24.614 82.2693 24.794C84.1413 24.938 85.9593 25.01 87.7233 25.01C89.3073 25.01 90.7293 24.902 91.9893 24.686C93.2493 24.47 94.1673 24.074 94.7433 23.498C94.8513 23.714 94.9053 23.966 94.9053 24.254C94.9053 25.01 94.4733 25.748 93.6093 26.468C92.7453 27.188 91.5753 27.674 90.0993 27.926C89.6313 27.998 89.0913 28.052 88.4793 28.088C87.9033 28.124 87.2913 28.142 86.6433 28.142C85.5633 28.142 84.4833 28.124 83.4033 28.088C82.3233 28.016 81.3693 27.944 80.5413 27.872C79.7133 27.8 79.1553 27.782 78.8673 27.818C78.6513 28.142 78.3093 28.736 77.8413 29.6C77.4093 30.464 76.9413 31.4 76.4373 32.408C75.9333 33.416 75.4833 34.334 75.0873 35.162C74.4033 36.602 73.6833 38.222 72.9273 40.022C72.1713 41.822 71.4513 43.64 70.7673 45.476C70.0833 47.312 69.4893 49.058 68.9853 50.714C68.5173 52.37 68.2113 53.792 68.0673 54.98C68.0313 55.088 68.0133 55.214 68.0133 55.358C68.0133 55.466 68.0133 55.574 68.0133 55.682C68.0133 56.366 68.1393 56.96 68.3913 57.464C68.6793 57.932 69.1113 58.166 69.6873 58.166C70.1913 58.166 70.8033 57.896 71.5233 57.356C72.2433 56.816 73.0713 55.916 74.0073 54.656C74.1873 54.44 74.3493 54.332 74.4933 54.332C74.7093 54.332 74.8173 54.512 74.8173 54.872C74.8173 55.124 74.7273 55.466 74.5473 55.898C74.4033 56.33 74.1333 56.834 73.7373 57.41C73.4133 57.878 72.8913 58.508 72.1713 59.3C71.4513 60.056 70.7493 60.704 70.0653 61.244C69.4533 61.748 68.6973 62.198 67.7973 62.594C66.8973 62.99 66.0333 63.188 65.2053 63.188Z" fill="#9C5800"/>
</svg>
