<svg width="268" height="55" viewBox="0 0 268 55" fill="none" xmlns="http://www.w3.org/2000/svg">
<path d="M9.556 42.296C6.532 41.792 4.318 40.478 2.914 38.354C1.546 36.23 0.862 33.71 0.862 30.794C0.862 28.67 1.204 26.456 1.888 24.152C2.572 21.812 3.544 19.526 4.804 17.294C6.1 15.062 7.648 12.992 9.448 11.084C11.248 9.14 13.282 7.484 15.55 6.116C17.818 4.748 20.284 3.794 22.948 3.254C24.568 2.93 26.116 2.768 27.592 2.768C30.472 2.768 32.776 3.344 34.504 4.496C36.232 5.612 37.096 7.052 37.096 8.816C37.096 9.176 37.06 9.536 36.988 9.896C36.952 10.22 36.844 10.58 36.664 10.976C36.268 12.02 35.602 12.956 34.666 13.784C33.766 14.576 32.722 15.188 31.534 15.62C30.382 16.052 29.194 16.232 27.97 16.16C27.394 16.088 26.89 15.89 26.458 15.566C26.062 15.206 25.864 14.774 25.864 14.27C25.864 13.766 26.08 13.226 26.512 12.65C26.908 12.794 27.358 12.866 27.862 12.866C28.762 12.866 29.644 12.65 30.508 12.218C31.372 11.786 32.092 11.192 32.668 10.436C33.244 9.68 33.532 8.834 33.532 7.898C33.532 6.638 33.1 5.81 32.236 5.414C31.372 4.982 30.4 4.766 29.32 4.766C28.6 4.766 27.88 4.838 27.16 4.982C26.476 5.09 25.918 5.198 25.486 5.306C23.434 5.846 21.328 6.836 19.168 8.276C17.044 9.68 15.1 11.408 13.336 13.46C11.572 15.476 10.204 17.69 9.232 20.102C8.512 21.866 7.954 23.648 7.558 25.448C7.162 27.248 6.964 28.958 6.964 30.578C6.964 32.666 7.306 34.502 7.99 36.086C8.71 37.67 9.844 38.768 11.392 39.38C12.796 39.92 14.236 40.19 15.712 40.19C18.088 40.19 20.482 39.614 22.894 38.462C25.342 37.31 27.592 35.852 29.644 34.088C30.904 32.972 32.038 31.82 33.046 30.632C34.054 29.444 34.828 28.184 35.368 26.852C36.052 27.284 36.394 27.914 36.394 28.742C36.394 29.39 36.196 30.092 35.8 30.848C35.44 31.604 35.008 32.306 34.504 32.954C34.036 33.602 33.622 34.106 33.262 34.466C30.742 37.094 27.718 39.11 24.19 40.514C20.698 41.918 17.152 42.62 13.552 42.62C12.184 42.62 10.852 42.512 9.556 42.296ZM46.6951 41.432C45.0391 41.432 43.5991 40.91 42.3751 39.866C41.1871 38.822 40.5931 37.148 40.5931 34.844C40.5931 33.152 40.8991 31.388 41.5111 29.552C42.1231 27.716 42.9871 26.006 44.1031 24.422C45.2551 22.838 46.6411 21.542 48.2611 20.534C49.8811 19.526 51.6991 19.022 53.7151 19.022C55.3711 19.022 56.6491 19.346 57.5491 19.994C58.4851 20.606 59.1511 21.434 59.5471 22.478C59.9431 23.522 60.1411 24.638 60.1411 25.826C60.1411 26.726 60.0331 27.644 59.8171 28.58C59.6371 29.48 59.3671 30.38 59.0071 31.28C59.6191 32 60.3931 32.36 61.3291 32.36C62.3371 32.36 63.2731 31.982 64.1371 31.226C64.6411 30.794 65.0911 30.254 65.4871 29.606C65.9191 28.922 66.2971 28.292 66.6211 27.716C66.7291 27.5 66.8551 27.392 66.9991 27.392C67.1791 27.392 67.2691 27.644 67.2691 28.148C67.2691 28.472 67.2151 28.85 67.1071 29.282C67.0351 29.714 66.8551 30.146 66.5671 30.578C66.0271 31.514 65.4691 32.234 64.8931 32.738C64.3171 33.206 63.6691 33.584 62.9491 33.872C62.4091 34.088 61.8331 34.196 61.2211 34.196C60.1051 34.196 59.0971 33.854 58.1971 33.17C57.9091 33.782 57.5491 34.412 57.1171 35.06C56.0731 36.824 54.7231 38.336 53.0671 39.596C51.4111 40.82 49.2871 41.432 46.6951 41.432ZM48.7471 39.38C49.5751 39.38 50.3671 39.11 51.1231 38.57C51.9151 37.994 52.6351 37.292 53.2831 36.464C53.9311 35.636 54.4891 34.772 54.9571 33.872C55.4611 32.972 55.8751 32.18 56.1991 31.496C54.9751 30.452 54.3631 29.138 54.3631 27.554C54.3631 26.51 54.6511 25.7 55.2271 25.124C55.8031 24.548 56.5951 24.296 57.6031 24.368C57.5671 23.54 57.3511 22.856 56.9551 22.316C56.5591 21.776 55.9111 21.506 55.0111 21.506C54.1831 21.506 53.3911 21.758 52.6351 22.262C51.9151 22.766 51.2311 23.414 50.5831 24.206C49.9711 24.962 49.4131 25.754 48.9091 26.582C48.4411 27.374 48.0451 28.094 47.7211 28.742C47.2531 29.678 46.8211 30.812 46.4251 32.144C46.0291 33.476 45.8311 34.718 45.8311 35.87C45.8311 36.878 46.0291 37.724 46.4251 38.408C46.8571 39.056 47.6311 39.38 48.7471 39.38ZM62.8029 54.392C60.9309 54.392 59.5989 53.942 58.8069 53.042C58.0149 52.142 57.6189 51.17 57.6189 50.126C57.6189 49.478 57.7629 48.866 58.0509 48.29C58.3029 47.714 58.6629 47.3 59.1309 47.048C59.4909 46.868 59.8149 46.778 60.1029 46.778C60.4989 46.778 60.8589 46.904 61.1829 47.156C61.5069 47.408 61.6689 47.75 61.6689 48.182C61.6689 48.29 61.6689 48.38 61.6689 48.452C61.6329 48.56 61.5969 48.668 61.5609 48.776C61.3449 48.956 61.1469 49.226 60.9669 49.586C60.7509 49.946 60.6069 50.306 60.5349 50.666C60.4989 50.738 60.4809 50.828 60.4809 50.936C60.4809 51.044 60.4809 51.134 60.4809 51.206C60.4809 51.674 60.6249 52.07 60.9129 52.394C61.2009 52.718 61.5249 52.88 61.8849 52.88C62.8209 52.88 63.7209 52.538 64.5849 51.854C65.4489 51.17 66.2409 50.306 66.9609 49.262C67.7169 48.254 68.3829 47.228 68.9589 46.184C69.5349 45.14 70.0029 44.24 70.3629 43.484C72.0189 40.136 73.5849 36.644 75.0609 33.008C76.5729 29.372 77.9949 25.826 79.3269 22.37H77.8149C77.1669 22.37 76.4829 22.478 75.7629 22.694C75.0789 22.91 74.5389 23.378 74.1429 24.098C73.5669 25.214 72.9369 26.402 72.2529 27.662C71.6049 28.922 70.8669 30.182 70.0389 31.442C69.8949 31.694 69.7689 31.82 69.6609 31.82C69.4809 31.82 69.3909 31.55 69.3909 31.01C69.3909 30.362 69.4989 29.822 69.7149 29.39C70.2549 28.49 70.7769 27.5 71.2809 26.42C71.8209 25.304 72.3069 24.242 72.7389 23.234C73.1709 22.226 73.4949 21.398 73.7109 20.75C73.8909 20.246 74.0709 19.904 74.2509 19.724C74.4669 19.544 74.8989 19.49 75.5469 19.562L80.2989 19.94C80.7309 18.788 81.1449 17.672 81.5409 16.592C81.9729 15.476 82.3869 14.414 82.7829 13.406C83.6109 11.318 84.5649 9.32 85.6449 7.412C86.7249 5.504 88.0569 3.956 89.6409 2.768C91.2609 1.544 93.2229 0.931998 95.5269 0.931998C96.8589 0.895998 97.9929 1.094 98.9289 1.526C99.8649 1.958 100.549 2.768 100.981 3.956C101.089 4.28 101.143 4.658 101.143 5.09C101.143 5.81 100.963 6.548 100.603 7.304C100.243 8.06 99.7569 8.582 99.1449 8.87C98.9649 8.978 98.7669 9.05 98.5509 9.086C98.3349 9.122 98.1369 9.14 97.9569 9.14C97.4889 9.14 97.0749 9.014 96.7149 8.762C96.3549 8.51 96.1749 8.15 96.1749 7.682C96.1749 7.466 96.2289 7.232 96.3369 6.98C96.9849 6.512 97.4349 5.846 97.6869 4.982C97.7229 4.838 97.7409 4.712 97.7409 4.604C97.7769 4.496 97.7949 4.388 97.7949 4.28C97.7949 3.56 97.5249 3.038 96.9849 2.714C96.7689 2.534 96.5349 2.426 96.2829 2.39C96.0309 2.318 95.7789 2.282 95.5269 2.282C94.3389 2.282 93.2769 2.84 92.3409 3.956C91.1889 5.288 90.1269 6.926 89.1549 8.87C88.2189 10.814 87.3729 12.794 86.6169 14.81C85.8969 16.826 85.2489 18.608 84.6729 20.156C86.1489 20.156 87.5709 20.138 88.9389 20.102C90.3429 20.03 91.5489 19.94 92.5569 19.832C93.5649 19.688 94.1769 19.544 94.3929 19.4C94.1409 20.084 93.7089 20.624 93.0969 21.02C92.5209 21.416 91.6389 21.704 90.4509 21.884C89.6229 22.028 88.6329 22.136 87.4809 22.208C86.3289 22.244 85.1409 22.28 83.9169 22.316L82.3509 26.852C81.8469 28.292 81.2349 29.966 80.5149 31.874C79.8309 33.782 79.0389 35.78 78.1389 37.868C77.2389 39.92 76.2309 41.918 75.1149 43.862C74.0349 45.806 72.8469 47.57 71.5509 49.154C70.2909 50.774 68.9229 52.052 67.4469 52.988C66.0069 53.924 64.4589 54.392 62.8029 54.392ZM87.844 54.392C85.972 54.392 84.64 53.942 83.848 53.042C83.056 52.142 82.66 51.17 82.66 50.126C82.66 49.478 82.804 48.866 83.092 48.29C83.344 47.714 83.704 47.3 84.172 47.048C84.532 46.868 84.856 46.778 85.144 46.778C85.54 46.778 85.9 46.904 86.224 47.156C86.548 47.408 86.71 47.75 86.71 48.182C86.71 48.29 86.71 48.38 86.71 48.452C86.674 48.56 86.638 48.668 86.602 48.776C86.386 48.956 86.188 49.226 86.008 49.586C85.792 49.946 85.648 50.306 85.576 50.666C85.54 50.738 85.522 50.828 85.522 50.936C85.522 51.044 85.522 51.134 85.522 51.206C85.522 51.674 85.666 52.07 85.954 52.394C86.242 52.718 86.566 52.88 86.926 52.88C87.862 52.88 88.762 52.538 89.626 51.854C90.49 51.17 91.282 50.306 92.002 49.262C92.758 48.254 93.424 47.228 94 46.184C94.576 45.14 95.044 44.24 95.404 43.484C97.06 40.136 98.626 36.644 100.102 33.008C101.614 29.372 103.036 25.826 104.368 22.37H102.856C102.208 22.37 101.524 22.478 100.804 22.694C100.12 22.91 99.58 23.378 99.184 24.098C98.608 25.214 97.978 26.402 97.294 27.662C96.646 28.922 95.908 30.182 95.08 31.442C94.936 31.694 94.81 31.82 94.702 31.82C94.522 31.82 94.432 31.55 94.432 31.01C94.432 30.362 94.54 29.822 94.756 29.39C95.296 28.49 95.818 27.5 96.322 26.42C96.862 25.304 97.348 24.242 97.78 23.234C98.212 22.226 98.536 21.398 98.752 20.75C98.932 20.246 99.112 19.904 99.292 19.724C99.508 19.544 99.94 19.49 100.588 19.562L105.34 19.94C105.772 18.788 106.186 17.672 106.582 16.592C107.014 15.476 107.428 14.414 107.824 13.406C108.652 11.318 109.606 9.32 110.686 7.412C111.766 5.504 113.098 3.956 114.682 2.768C116.302 1.544 118.264 0.931998 120.568 0.931998C121.9 0.895998 123.034 1.094 123.97 1.526C124.906 1.958 125.59 2.768 126.022 3.956C126.13 4.28 126.184 4.658 126.184 5.09C126.184 5.81 126.004 6.548 125.644 7.304C125.284 8.06 124.798 8.582 124.186 8.87C124.006 8.978 123.808 9.05 123.592 9.086C123.376 9.122 123.178 9.14 122.998 9.14C122.53 9.14 122.116 9.014 121.756 8.762C121.396 8.51 121.216 8.15 121.216 7.682C121.216 7.466 121.27 7.232 121.378 6.98C122.026 6.512 122.476 5.846 122.728 4.982C122.764 4.838 122.782 4.712 122.782 4.604C122.818 4.496 122.836 4.388 122.836 4.28C122.836 3.56 122.566 3.038 122.026 2.714C121.81 2.534 121.576 2.426 121.324 2.39C121.072 2.318 120.82 2.282 120.568 2.282C119.38 2.282 118.318 2.84 117.382 3.956C116.23 5.288 115.168 6.926 114.196 8.87C113.26 10.814 112.414 12.794 111.658 14.81C110.938 16.826 110.29 18.608 109.714 20.156C111.19 20.156 112.612 20.138 113.98 20.102C115.384 20.03 116.59 19.94 117.598 19.832C118.606 19.688 119.218 19.544 119.434 19.4C119.182 20.084 118.75 20.624 118.138 21.02C117.562 21.416 116.68 21.704 115.492 21.884C114.664 22.028 113.674 22.136 112.522 22.208C111.37 22.244 110.182 22.28 108.958 22.316L107.392 26.852C106.888 28.292 106.276 29.966 105.556 31.874C104.872 33.782 104.08 35.78 103.18 37.868C102.28 39.92 101.272 41.918 100.156 43.862C99.076 45.806 97.888 47.57 96.592 49.154C95.332 50.774 93.964 52.052 92.488 52.988C91.048 53.924 89.5 54.392 87.844 54.392ZM130.09 40.244C128.434 41.108 126.688 41.54 124.852 41.54C123.304 41.54 121.864 41.162 120.532 40.406C119.2 39.65 118.3 38.444 117.832 36.788C117.616 36.032 117.508 35.24 117.508 34.412C117.508 33.044 117.742 31.64 118.21 30.2C118.714 28.724 119.362 27.374 120.154 26.15C121.378 24.242 122.926 22.658 124.798 21.398C126.67 20.138 128.74 19.508 131.008 19.508C132.7 19.508 134.014 19.94 134.95 20.804C135.886 21.668 136.354 22.676 136.354 23.828C136.354 25.196 135.886 26.402 134.95 27.446C134.05 28.454 132.862 29.228 131.386 29.768C130.666 30.02 129.892 30.218 129.064 30.362C128.272 30.47 127.516 30.524 126.796 30.524C125.32 30.524 124.186 30.326 123.394 29.93C122.71 31.694 122.368 33.314 122.368 34.79C122.368 36.122 122.674 37.22 123.286 38.084C123.898 38.912 124.87 39.326 126.202 39.326C127.318 39.326 128.416 39.02 129.496 38.408C130.612 37.796 131.638 37.04 132.574 36.14C133.546 35.24 134.356 34.376 135.004 33.548C135.508 32.936 135.94 32.36 136.3 31.82C136.66 31.28 137.038 30.668 137.434 29.984C137.83 29.264 138.298 28.382 138.838 27.338C138.982 27.086 139.108 26.96 139.216 26.96C139.432 26.96 139.54 27.248 139.54 27.824C139.54 28.148 139.486 28.508 139.378 28.904C139.306 29.264 139.162 29.642 138.946 30.038C138.442 30.938 137.83 31.928 137.11 33.008C136.426 34.052 135.724 35.06 135.004 36.032C134.356 36.896 133.618 37.688 132.79 38.408C131.962 39.128 131.062 39.74 130.09 40.244ZM125.176 28.742C125.356 28.85 125.554 28.922 125.77 28.958C125.986 28.994 126.202 29.012 126.418 29.012C127.138 29.012 127.858 28.85 128.578 28.526C129.298 28.166 129.91 27.806 130.414 27.446C131.242 26.87 131.944 26.186 132.52 25.394C133.096 24.602 133.42 23.702 133.492 22.694C133.528 22.262 133.42 21.902 133.168 21.614C132.952 21.29 132.556 21.128 131.98 21.128C131.692 21.128 131.332 21.182 130.9 21.29C130.324 21.434 129.748 21.704 129.172 22.1C128.596 22.496 128.038 22.964 127.498 23.504C127.318 23.684 126.994 24.044 126.526 24.584C126.094 25.088 125.68 25.664 125.284 26.312C124.888 26.924 124.69 27.464 124.69 27.932C124.69 28.328 124.852 28.598 125.176 28.742ZM153.443 40.244C151.787 41.108 150.041 41.54 148.205 41.54C146.657 41.54 145.217 41.162 143.885 40.406C142.553 39.65 141.653 38.444 141.185 36.788C140.969 36.032 140.861 35.24 140.861 34.412C140.861 33.044 141.095 31.64 141.563 30.2C142.067 28.724 142.715 27.374 143.507 26.15C144.731 24.242 146.279 22.658 148.151 21.398C150.023 20.138 152.093 19.508 154.361 19.508C156.053 19.508 157.367 19.94 158.303 20.804C159.239 21.668 159.707 22.676 159.707 23.828C159.707 25.196 159.239 26.402 158.303 27.446C157.403 28.454 156.215 29.228 154.739 29.768C154.019 30.02 153.245 30.218 152.417 30.362C151.625 30.47 150.869 30.524 150.149 30.524C148.673 30.524 147.539 30.326 146.747 29.93C146.063 31.694 145.721 33.314 145.721 34.79C145.721 36.122 146.027 37.22 146.639 38.084C147.251 38.912 148.223 39.326 149.555 39.326C150.671 39.326 151.769 39.02 152.849 38.408C153.965 37.796 154.991 37.04 155.927 36.14C156.899 35.24 157.709 34.376 158.357 33.548C158.861 32.936 159.293 32.36 159.653 31.82C160.013 31.28 160.391 30.668 160.787 29.984C161.183 29.264 161.651 28.382 162.191 27.338C162.335 27.086 162.461 26.96 162.569 26.96C162.785 26.96 162.893 27.248 162.893 27.824C162.893 28.148 162.839 28.508 162.731 28.904C162.659 29.264 162.515 29.642 162.299 30.038C161.795 30.938 161.183 31.928 160.463 33.008C159.779 34.052 159.077 35.06 158.357 36.032C157.709 36.896 156.971 37.688 156.143 38.408C155.315 39.128 154.415 39.74 153.443 40.244ZM148.529 28.742C148.709 28.85 148.907 28.922 149.123 28.958C149.339 28.994 149.555 29.012 149.771 29.012C150.491 29.012 151.211 28.85 151.931 28.526C152.651 28.166 153.263 27.806 153.767 27.446C154.595 26.87 155.297 26.186 155.873 25.394C156.449 24.602 156.773 23.702 156.845 22.694C156.881 22.262 156.773 21.902 156.521 21.614C156.305 21.29 155.909 21.128 155.333 21.128C155.045 21.128 154.685 21.182 154.253 21.29C153.677 21.434 153.101 21.704 152.525 22.1C151.949 22.496 151.391 22.964 150.851 23.504C150.671 23.684 150.347 24.044 149.879 24.584C149.447 25.088 149.033 25.664 148.637 26.312C148.241 26.924 148.043 27.464 148.043 27.932C148.043 28.328 148.205 28.598 148.529 28.742ZM173.557 42.188C172.369 42.188 171.577 41.774 171.181 40.946C170.785 40.082 170.587 39.128 170.587 38.084C170.587 37.364 170.641 36.662 170.749 35.978C170.857 35.258 170.965 34.664 171.073 34.196C171.361 32.828 171.829 31.208 172.477 29.336C173.125 27.428 173.863 25.43 174.691 23.342C175.555 21.218 176.455 19.13 177.391 17.078C178.327 14.99 179.227 13.046 180.091 11.246C180.991 9.41 181.783 7.844 182.467 6.548C181.639 6.584 180.685 6.584 179.605 6.548C178.525 6.476 177.409 6.44 176.257 6.44C174.277 6.44 172.315 6.602 170.371 6.926C168.463 7.214 166.897 7.916 165.673 9.032C165.097 9.572 164.683 10.148 164.431 10.76C164.179 11.372 164.053 11.984 164.053 12.596C164.053 13.28 164.161 13.946 164.377 14.594C164.413 14.666 164.431 14.756 164.431 14.864C164.431 15.224 164.251 15.404 163.891 15.404C163.675 15.404 163.513 15.314 163.405 15.134C163.045 14.558 162.775 13.982 162.595 13.406C162.451 12.794 162.379 12.2 162.379 11.624C162.379 10.616 162.559 9.662 162.919 8.762C163.279 7.862 163.711 7.124 164.215 6.548C165.475 5.072 167.185 4.1 169.345 3.632C171.505 3.128 173.755 2.876 176.095 2.876C177.895 2.876 179.641 2.948 181.333 3.092C183.061 3.236 184.591 3.344 185.923 3.416C187.183 3.488 188.749 3.614 190.621 3.794C192.493 3.938 194.311 4.01 196.075 4.01C197.659 4.01 199.081 3.902 200.341 3.686C201.601 3.47 202.519 3.074 203.095 2.498C203.203 2.714 203.257 2.966 203.257 3.254C203.257 4.01 202.825 4.748 201.961 5.468C201.097 6.188 199.927 6.674 198.451 6.926C197.983 6.998 197.443 7.052 196.831 7.088C196.255 7.124 195.643 7.142 194.995 7.142C193.915 7.142 192.835 7.124 191.755 7.088C190.675 7.016 189.721 6.944 188.893 6.872C188.065 6.8 187.507 6.782 187.219 6.818C187.003 7.142 186.661 7.736 186.193 8.6C185.761 9.464 185.293 10.4 184.789 11.408C184.285 12.416 183.835 13.334 183.439 14.162C182.755 15.602 182.035 17.222 181.279 19.022C180.523 20.822 179.803 22.64 179.119 24.476C178.435 26.312 177.841 28.058 177.337 29.714C176.869 31.37 176.563 32.792 176.419 33.98C176.383 34.088 176.365 34.214 176.365 34.358C176.365 34.466 176.365 34.574 176.365 34.682C176.365 35.366 176.491 35.96 176.743 36.464C177.031 36.932 177.463 37.166 178.039 37.166C178.543 37.166 179.155 36.896 179.875 36.356C180.595 35.816 181.423 34.916 182.359 33.656C182.539 33.44 182.701 33.332 182.845 33.332C183.061 33.332 183.169 33.512 183.169 33.872C183.169 34.124 183.079 34.466 182.899 34.898C182.755 35.33 182.485 35.834 182.089 36.41C181.765 36.878 181.243 37.508 180.523 38.3C179.803 39.056 179.101 39.704 178.417 40.244C177.805 40.748 177.049 41.198 176.149 41.594C175.249 41.99 174.385 42.188 173.557 42.188ZM201.609 15.08C200.673 14.756 200.205 14.144 200.205 13.244C200.205 12.416 200.529 11.57 201.177 10.706C201.861 9.806 202.599 9.23 203.391 8.978C203.571 8.906 203.715 8.87 203.823 8.87C203.967 8.87 204.111 8.87 204.255 8.87C204.867 8.87 205.371 9.05 205.767 9.41C206.163 9.77 206.361 10.184 206.361 10.652C206.361 11.3 206.019 11.84 205.335 12.272C204.795 12.2 204.273 12.326 203.769 12.65C203.265 12.974 202.815 13.37 202.419 13.838C202.059 14.306 201.789 14.72 201.609 15.08ZM192.321 41.324C191.853 41.324 191.403 41.216 190.971 41C190.539 40.82 190.179 40.442 189.891 39.866C189.495 39.002 189.297 37.976 189.297 36.788C189.297 35.492 189.495 34.052 189.891 32.468C190.287 30.848 190.809 29.192 191.457 27.5C191.709 26.888 192.033 26.132 192.429 25.232C192.825 24.332 193.293 23.432 193.833 22.532C194.373 21.632 194.985 20.894 195.669 20.318C196.389 19.706 197.163 19.4 197.991 19.4C198.387 19.4 198.945 19.418 199.665 19.454C200.385 19.49 200.907 19.49 201.231 19.454C201.015 19.598 200.763 19.886 200.475 20.318C200.187 20.75 199.917 21.2 199.665 21.668C199.413 22.1 199.215 22.442 199.071 22.694C198.135 24.566 197.253 26.42 196.425 28.256C195.597 30.092 194.967 31.856 194.535 33.548C194.463 33.836 194.409 34.124 194.373 34.412C194.337 34.7 194.319 34.97 194.319 35.222C194.319 36.266 194.661 36.788 195.345 36.788C195.633 36.788 195.939 36.716 196.263 36.572C196.623 36.392 197.037 36.122 197.505 35.762C198.333 35.114 199.053 34.376 199.665 33.548C200.385 32.612 201.069 31.622 201.717 30.578C202.365 29.498 202.923 28.508 203.391 27.608C203.571 27.32 203.697 27.176 203.769 27.176C203.985 27.176 204.093 27.482 204.093 28.094C204.093 28.382 204.039 28.724 203.931 29.12C203.859 29.48 203.733 29.822 203.553 30.146C203.049 31.01 202.455 31.964 201.771 33.008C201.087 34.052 200.385 35.06 199.665 36.032C199.161 36.716 198.495 37.472 197.667 38.3C196.839 39.128 195.957 39.848 195.021 40.46C194.085 41.036 193.185 41.324 192.321 41.324ZM232.22 41.324C230.996 41.324 230.15 40.964 229.682 40.244C229.25 39.488 229.034 38.624 229.034 37.652C229.034 36.608 229.196 35.402 229.52 34.034C229.88 32.63 230.312 31.19 230.816 29.714C231.356 28.202 231.896 26.798 232.436 25.502C232.616 25.07 232.778 24.602 232.922 24.098C233.102 23.594 233.192 23.144 233.192 22.748C233.192 22.028 232.868 21.668 232.22 21.668C231.968 21.668 231.68 21.722 231.356 21.83C231.032 21.902 230.654 22.064 230.222 22.316C229.466 22.676 228.746 23.18 228.062 23.828C227.378 24.44 226.892 24.908 226.604 25.232C225.236 26.996 224.192 28.904 223.472 30.956C222.788 33.008 222.068 35.096 221.312 37.22C221.096 37.832 220.88 38.462 220.664 39.11C220.448 39.758 220.25 40.388 220.07 41H214.778C215.39 39.272 216.002 37.562 216.614 35.87C217.262 34.142 217.91 32.432 218.558 30.74C218.954 29.768 219.314 28.832 219.638 27.932C219.962 26.996 220.25 26.132 220.502 25.34C220.646 24.944 220.772 24.53 220.88 24.098C220.988 23.666 221.042 23.27 221.042 22.91C221.042 22.082 220.682 21.668 219.962 21.668C219.71 21.668 219.404 21.722 219.044 21.83C218.72 21.902 218.324 22.064 217.856 22.316C217.1 22.676 216.38 23.18 215.696 23.828C215.012 24.44 214.544 24.908 214.292 25.232C213.824 25.808 213.374 26.456 212.942 27.176C212.51 27.86 212.132 28.562 211.808 29.282C211.088 30.83 210.512 32.306 210.08 33.71C209.684 35.078 209.306 36.248 208.946 37.22C208.73 37.832 208.514 38.462 208.298 39.11C208.082 39.758 207.884 40.388 207.704 41H202.466C202.466 41 202.592 40.55 202.844 39.65C203.096 38.75 203.402 37.85 203.762 36.95L207.272 27.986C207.38 27.698 207.542 27.23 207.758 26.582C208.01 25.898 208.262 25.16 208.514 24.368C208.766 23.54 208.982 22.748 209.162 21.992C209.342 21.2 209.432 20.552 209.432 20.048C209.432 19.724 209.396 19.508 209.324 19.4C209.648 19.4 210.008 19.4 210.404 19.4C210.836 19.364 211.232 19.346 211.592 19.346C212.096 19.346 212.564 19.364 212.996 19.4C213.464 19.436 213.77 19.526 213.914 19.67C214.31 19.958 214.508 20.39 214.508 20.966C214.508 21.434 214.418 21.902 214.238 22.37C214.058 22.802 213.932 23.162 213.86 23.45C214.364 22.982 214.922 22.532 215.534 22.1C216.146 21.668 217.028 21.11 218.18 20.426C218.9 20.03 219.746 19.706 220.718 19.454C221.69 19.202 222.572 19.076 223.364 19.076C225.272 19.076 226.226 19.868 226.226 21.452C226.226 22.1 226.028 22.964 225.632 24.044C226.388 23.288 227.162 22.64 227.954 22.1C228.782 21.524 229.646 20.966 230.546 20.426C231.266 20.03 232.112 19.706 233.084 19.454C234.056 19.202 234.938 19.076 235.73 19.076C237.638 19.076 238.592 19.886 238.592 21.506C238.592 21.866 238.52 22.28 238.376 22.748C238.268 23.216 238.106 23.738 237.89 24.314C237.674 24.89 237.368 25.682 236.972 26.69C236.576 27.662 236.162 28.706 235.73 29.822C235.334 30.902 234.992 31.946 234.704 32.954C234.452 33.926 234.326 34.736 234.326 35.384C234.326 35.78 234.38 36.14 234.488 36.464C234.632 36.752 234.884 36.896 235.244 36.896C235.496 36.896 235.856 36.77 236.324 36.518C236.972 36.122 237.62 35.6 238.268 34.952C238.916 34.304 239.348 33.836 239.564 33.548C240.284 32.612 240.968 31.622 241.616 30.578C242.264 29.498 242.822 28.508 243.29 27.608C243.47 27.32 243.596 27.176 243.668 27.176C243.884 27.176 243.992 27.482 243.992 28.094C243.992 28.382 243.938 28.724 243.83 29.12C243.758 29.48 243.632 29.822 243.452 30.146C242.948 31.01 242.354 31.964 241.67 33.008C240.986 34.052 240.284 35.06 239.564 36.032C239.06 36.716 238.394 37.472 237.566 38.3C236.738 39.128 235.856 39.848 234.92 40.46C233.984 41.036 233.084 41.324 232.22 41.324ZM257.984 40.244C256.328 41.108 254.582 41.54 252.746 41.54C251.198 41.54 249.758 41.162 248.426 40.406C247.094 39.65 246.194 38.444 245.726 36.788C245.51 36.032 245.402 35.24 245.402 34.412C245.402 33.044 245.636 31.64 246.104 30.2C246.608 28.724 247.256 27.374 248.048 26.15C249.272 24.242 250.82 22.658 252.692 21.398C254.564 20.138 256.634 19.508 258.902 19.508C260.594 19.508 261.908 19.94 262.844 20.804C263.78 21.668 264.248 22.676 264.248 23.828C264.248 25.196 263.78 26.402 262.844 27.446C261.944 28.454 260.756 29.228 259.28 29.768C258.56 30.02 257.786 30.218 256.958 30.362C256.166 30.47 255.41 30.524 254.69 30.524C253.214 30.524 252.08 30.326 251.288 29.93C250.604 31.694 250.262 33.314 250.262 34.79C250.262 36.122 250.568 37.22 251.18 38.084C251.792 38.912 252.764 39.326 254.096 39.326C255.212 39.326 256.31 39.02 257.39 38.408C258.506 37.796 259.532 37.04 260.468 36.14C261.44 35.24 262.25 34.376 262.898 33.548C263.402 32.936 263.834 32.36 264.194 31.82C264.554 31.28 264.932 30.668 265.328 29.984C265.724 29.264 266.192 28.382 266.732 27.338C266.876 27.086 267.002 26.96 267.11 26.96C267.326 26.96 267.434 27.248 267.434 27.824C267.434 28.148 267.38 28.508 267.272 28.904C267.2 29.264 267.056 29.642 266.84 30.038C266.336 30.938 265.724 31.928 265.004 33.008C264.32 34.052 263.618 35.06 262.898 36.032C262.25 36.896 261.512 37.688 260.684 38.408C259.856 39.128 258.956 39.74 257.984 40.244ZM253.07 28.742C253.25 28.85 253.448 28.922 253.664 28.958C253.88 28.994 254.096 29.012 254.312 29.012C255.032 29.012 255.752 28.85 256.472 28.526C257.192 28.166 257.804 27.806 258.308 27.446C259.136 26.87 259.838 26.186 260.414 25.394C260.99 24.602 261.314 23.702 261.386 22.694C261.422 22.262 261.314 21.902 261.062 21.614C260.846 21.29 260.45 21.128 259.874 21.128C259.586 21.128 259.226 21.182 258.794 21.29C258.218 21.434 257.642 21.704 257.066 22.1C256.49 22.496 255.932 22.964 255.392 23.504C255.212 23.684 254.888 24.044 254.42 24.584C253.988 25.088 253.574 25.664 253.178 26.312C252.782 26.924 252.584 27.464 252.584 27.932C252.584 28.328 252.746 28.598 253.07 28.742Z" fill="#353534"/>
</svg>
